ISO-10303-21;
HEADER;
FILE_DESCRIPTION (( 'STEP AP203' ),
    '1' );
FILE_NAME ('Handkerchief.STEP',
    '2025-09-19T09:47:47',
    ( '' ),
    ( '' ),
    'SwSTEP 2.0',
    'SolidWorks 2022',
    '' );
FILE_SCHEMA (( 'CONFIG_CONTROL_DESIGN' ));
ENDSEC;

DATA;
#1 = DIRECTION ( 'NONE',  ( 0.000000000000000000, 0.000000000000000000, -1.000000000000000000 ) ) ;
#2 = ORIENTED_EDGE ( 'NONE', *, *, #189, .T. ) ;
#3 = APPROVAL ( #297, '未指定' ) ;
#4 = AXIS2_PLACEMENT_3D ( 'NONE', #262, #16, #216 ) ;
#5 = FACE_OUTER_BOUND ( 'NONE', #18, .T. ) ;
#6 = ORIENTED_EDGE ( 'NONE', *, *, #37, .T. ) ;
#7 = VERTEX_POINT ( 'NONE', #215 ) ;
#8 = CARTESIAN_POINT ( 'NONE',  ( -21.21320343559642652, 3.000000000000000000, -1.734723475976807094E-15 ) ) ;
#9 = DIRECTION ( 'NONE',  ( -0.000000000000000000, -0.000000000000000000, -1.000000000000000000 ) ) ;
#10 = EDGE_LOOP ( 'NONE', ( #42, #302, #21, #410 ) ) ;
#11 = EDGE_CURVE ( 'NONE', #391, #134, #371, .T. ) ;
#12 = FACE_OUTER_BOUND ( 'NONE', #620, .T. ) ;
#13 = VECTOR ( 'NONE', #264, 1000.000000000000000 ) ;
#14 = LOCAL_TIME ( 17, 47, 47.00000000000000000, #367 ) ;
#15 = APPROVAL_PERSON_ORGANIZATION ( #396, #512, #592 ) ;
#16 = DIRECTION ( 'NONE',  ( -1.000000000000000000, 0.000000000000000000, 0.000000000000000000 ) ) ;
#17 = DIRECTION ( 'NONE',  ( -1.000000000000000000, -0.000000000000000000, -0.000000000000000000 ) ) ;
#18 = EDGE_LOOP ( 'NONE', ( #469, #577, #557, #593 ) ) ;
#19 = PERSON_AND_ORGANIZATION ( #530, #317 ) ;
#20 = DIRECTION ( 'NONE',  ( 0.000000000000000000, 0.000000000000000000, 1.000000000000000000 ) ) ;
#21 = ORIENTED_EDGE ( 'NONE', *, *, #387, .F. ) ;
#22 = DIRECTION ( 'NONE',  ( 0.7071067811865474617, 0.000000000000000000, 0.7071067811865474617 ) ) ;
#23 = VECTOR ( 'NONE', #22, 1000.000000000000114 ) ;
#24 = CARTESIAN_POINT ( 'NONE',  ( 15.00000000000000000, 0.000000000000000000, 6.213203435596427404 ) ) ;
#25 = ORIENTED_EDGE ( 'NONE', *, *, #295, .F. ) ;
#26 = VECTOR ( 'NONE', #340, 1000.000000000000000 ) ;
#27 = EDGE_CURVE ( 'NONE', #281, #555, #612, .T. ) ;
#28 = FACE_OUTER_BOUND ( 'NONE', #52, .T. ) ;
#29 = ORIENTED_EDGE ( 'NONE', *, *, #11, .T. ) ;
#30 = LINE ( 'NONE', #331, #573 ) ;
#31 = CARTESIAN_POINT ( 'NONE',  ( 14.99999999999999822, 3.000000000000000000, 6.213203435596429181 ) ) ;
#32 = EDGE_CURVE ( 'NONE', #265, #186, #607, .T. ) ;
#33 = AXIS2_PLACEMENT_3D ( 'NONE', #571, #127, #315 ) ;
#34 = LOCAL_TIME ( 17, 47, 47.00000000000000000, #236 ) ;
#35 = EDGE_LOOP ( 'NONE', ( #274, #137, #109, #450 ) ) ;
#36 = LINE ( 'NONE', #277, #513 ) ;
#37 = EDGE_CURVE ( 'NONE', #251, #145, #221, .T. ) ;
#38 = EDGE_LOOP ( 'NONE', ( #332, #153, #547, #162 ) ) ;
#39 = ADVANCED_FACE ( 'NONE', ( #421 ), #176, .F. ) ;
#40 = DIRECTION ( 'NONE',  ( 0.7071067811865475727, 0.000000000000000000, -0.7071067811865475727 ) ) ;
#41 = PERSON_AND_ORGANIZATION_ROLE ( 'creator' ) ;
#42 = ORIENTED_EDGE ( 'NONE', *, *, #376, .F. ) ;
#43 = DIRECTION ( 'NONE',  ( 0.000000000000000000, 0.000000000000000000, -1.000000000000000000 ) ) ;
#44 = LINE ( 'NONE', #491, #440 ) ;
#45 = DIRECTION ( 'NONE',  ( -0.7071067811865475727, 0.000000000000000000, 0.7071067811865474617 ) ) ;
#46 = ADVANCED_FACE ( 'NONE', ( #117 ), #461, .F. ) ;
#47 = CARTESIAN_POINT ( 'NONE',  ( 15.00000000000000000, 0.000000000000000000, -15.00000000000000000 ) ) ;
#48 = VERTEX_POINT ( 'NONE', #257 ) ;
#49 = CC_DESIGN_PERSON_AND_ORGANIZATION_ASSIGNMENT ( #583, #534, ( #83 ) ) ;
#50 = CARTESIAN_POINT ( 'NONE',  ( -21.21320343559642652, 3.000000000000000000, -1.734723475976807094E-15 ) ) ;
#51 = CARTESIAN_POINT ( 'NONE',  ( 6.213203435596427404, 0.000000000000000000, 15.00000000000000000 ) ) ;
#52 = EDGE_LOOP ( 'NONE', ( #56, #131, #424, #397 ) ) ;
#53 = DIRECTION ( 'NONE',  ( 0.000000000000000000, 0.000000000000000000, 1.000000000000000000 ) ) ;
#54 = ADVANCED_FACE ( 'NONE', ( #12 ), #70, .F. ) ;
#55 =( NAMED_UNIT ( * ) SI_UNIT ( $, .STERADIAN. ) SOLID_ANGLE_UNIT ( ) );
#56 = ORIENTED_EDGE ( 'NONE', *, *, #581, .F. ) ;
#57 = DIRECTION ( 'NONE',  ( 0.000000000000000000, 0.000000000000000000, 1.000000000000000000 ) ) ;
#58 = VECTOR ( 'NONE', #401, 1000.000000000000000 ) ;
#59 = LINE ( 'NONE', #300, #381 ) ;
#60 = ORIENTED_EDGE ( 'NONE', *, *, #232, .T. ) ;
#61 = ORIENTED_EDGE ( 'NONE', *, *, #594, .F. ) ;
#62 = EDGE_CURVE ( 'NONE', #550, #343, #112, .T. ) ;
#63 = DIRECTION ( 'NONE',  ( -0.7071067811865474617, -0.000000000000000000, -0.7071067811865475727 ) ) ;
#64 = DIRECTION ( 'NONE',  ( 0.000000000000000000, -0.000000000000000000, -1.000000000000000000 ) ) ;
#65 = VECTOR ( 'NONE', #478, 1000.000000000000000 ) ;
#66 = EDGE_CURVE ( 'NONE', #434, #206, #563, .T. ) ;
#67 = VECTOR ( 'NONE', #629, 1000.000000000000000 ) ;
#68 = FACE_OUTER_BOUND ( 'NONE', #375, .T. ) ;
#69 = DIRECTION ( 'NONE',  ( -1.000000000000000000, -0.000000000000000000, -0.000000000000000000 ) ) ;
#70 = PLANE ( 'NONE',  #278 ) ;
#71 = ORIENTED_EDGE ( 'NONE', *, *, #222, .T. ) ;
#72 = COORDINATED_UNIVERSAL_TIME_OFFSET ( 8, 0, .AHEAD. ) ;
#73 = DIRECTION ( 'NONE',  ( -0.000000000000000000, -0.000000000000000000, -1.000000000000000000 ) ) ;
#74 = LINE ( 'NONE', #556, #77 ) ;
#75 = ORIENTED_EDGE ( 'NONE', *, *, #344, .F. ) ;
#76 = EDGE_CURVE ( 'NONE', #343, #601, #366, .T. ) ;
#77 = VECTOR ( 'NONE', #609, 1000.000000000000114 ) ;
#78 = LINE ( 'NONE', #82, #574 ) ;
#79 = ORIENTED_EDGE ( 'NONE', *, *, #594, .T. ) ;
#80 = SECURITY_CLASSIFICATION ( '', '', #115 ) ;
#81 = ADVANCED_FACE ( 'NONE', ( #468 ), #219, .F. ) ;
#82 = CARTESIAN_POINT ( 'NONE',  ( -21.21320343559642652, 0.000000000000000000, -1.734723475976807094E-15 ) ) ;
#83 = PRODUCT ( 'Handkerchief', 'Handkerchief', '', ( #244 ) ) ;
#84 = CARTESIAN_POINT ( 'NONE',  ( 21.21320343559642652, 3.000000000000000000, -2.602085213965210642E-15 ) ) ;
#85 = VERTEX_POINT ( 'NONE', #316 ) ;
#86 = CARTESIAN_POINT ( 'NONE',  ( 15.00000000000000000, 3.000000000000000000, 6.213203435596427404 ) ) ;
#87 = AXIS2_PLACEMENT_3D ( 'NONE', #615, #179, #579 ) ;
#88 = AXIS2_PLACEMENT_3D ( 'NONE', #93, #286, #43 ) ;
#89 = VERTEX_POINT ( 'NONE', #413 ) ;
#90 = DIRECTION ( 'NONE',  ( 0.000000000000000000, 1.000000000000000000, 0.000000000000000000 ) ) ;
#91 = APPROVAL_STATUS ( 'not_yet_approved' ) ;
#92 = ORIENTED_EDGE ( 'NONE', *, *, #328, .T. ) ;
#93 = CARTESIAN_POINT ( 'NONE',  ( -15.00000000000000000, 3.000000000000000000, -15.00000000000000000 ) ) ;
#94 = LINE ( 'NONE', #151, #58 ) ;
#95 = CALENDAR_DATE ( 2025, 19, 9 ) ;
#96 = EDGE_CURVE ( 'NONE', #210, #550, #74, .T. ) ;
#97 = FACE_OUTER_BOUND ( 'NONE', #175, .T. ) ;
#98 = DATE_TIME_ROLE ( 'creation_date' ) ;
#99 = VECTOR ( 'NONE', #273, 1000.000000000000000 ) ;
#100 = ORIENTED_EDGE ( 'NONE', *, *, #544, .F. ) ;
#101 = PLANE ( 'NONE',  #452 ) ;
#102 = CARTESIAN_POINT ( 'NONE',  ( -15.00000000000000000, 3.000000000000000000, 15.00000000000000000 ) ) ;
#103 = ORIENTED_EDGE ( 'NONE', *, *, #394, .T. ) ;
#104 = EDGE_CURVE ( 'NONE', #349, #268, #507, .T. ) ;
#105 = PLANE ( 'NONE',  #310 ) ;
#106 = VERTEX_POINT ( 'NONE', #24 ) ;
#107 = LINE ( 'NONE', #159, #334 ) ;
#108 = LINE ( 'NONE', #503, #223 ) ;
#109 = ORIENTED_EDGE ( 'NONE', *, *, #62, .T. ) ;
#110 = VERTEX_POINT ( 'NONE', #605 ) ;
#111 = LINE ( 'NONE', #392, #252 ) ;
#112 = LINE ( 'NONE', #258, #490 ) ;
#113 = APPROVAL_ROLE ( '' ) ;
#114 = CARTESIAN_POINT ( 'NONE',  ( -15.00000000000000000, 3.000000000000000000, -15.00000000000000000 ) ) ;
#115 = SECURITY_CLASSIFICATION_LEVEL ( 'unclassified' ) ;
#116 = ADVANCED_FACE ( 'NONE', ( #514 ), #211, .T. ) ;
#117 = FACE_OUTER_BOUND ( 'NONE', #10, .T. ) ;
#118 = VECTOR ( 'NONE', #195, 1000.000000000000000 ) ;
#119 = EDGE_CURVE ( 'NONE', #106, #434, #554, .T. ) ;
#120 = CARTESIAN_POINT ( 'NONE',  ( 1.734723475976807094E-15, 3.000000000000000000, 21.21320343559642652 ) ) ;
#121 = APPROVAL_STATUS ( 'not_yet_approved' ) ;
#122 = CARTESIAN_POINT ( 'NONE',  ( -21.21320343559642652, 0.000000000000000000, -1.734723475976807094E-15 ) ) ;
#123 = CARTESIAN_POINT ( 'NONE',  ( 0.000000000000000000, 3.000000000000000000, 0.000000000000000000 ) ) ;
#124 = ORIENTED_EDGE ( 'NONE', *, *, #194, .F. ) ;
#125 = DIRECTION ( 'NONE',  ( 0.000000000000000000, 0.000000000000000000, 1.000000000000000000 ) ) ;
#126 = ORIENTED_EDGE ( 'NONE', *, *, #474, .F. ) ;
#127 = DIRECTION ( 'NONE',  ( 0.7071067811865475727, 0.000000000000000000, -0.7071067811865475727 ) ) ;
#128 = LINE ( 'NONE', #84, #65 ) ;
#129 = VECTOR ( 'NONE', #458, 1000.000000000000000 ) ;
#130 = CARTESIAN_POINT ( 'NONE',  ( -21.21320343559642652, 3.000000000000000000, -1.734723475976807094E-15 ) ) ;
#131 = ORIENTED_EDGE ( 'NONE', *, *, #203, .T. ) ;
#132 = ADVANCED_FACE ( 'NONE', ( #174 ), #313, .F. ) ;
#133 = LINE ( 'NONE', #235, #345 ) ;
#134 = VERTEX_POINT ( 'NONE', #464 ) ;
#135 = DIRECTION ( 'NONE',  ( -0.7071067811865474617, 0.000000000000000000, 0.7071067811865475727 ) ) ;
#136 = VECTOR ( 'NONE', #253, 1000.000000000000000 ) ;
#137 = ORIENTED_EDGE ( 'NONE', *, *, #448, .F. ) ;
#138 = PLANE ( 'NONE',  #172 ) ;
#139 = ADVANCED_FACE ( 'NONE', ( #68 ), #567, .F. ) ;
#140 = CARTESIAN_POINT ( 'NONE',  ( 1.734723475976807094E-15, 3.000000000000000000, 21.21320343559642652 ) ) ;
#141 = ORIENTED_EDGE ( 'NONE', *, *, #387, .T. ) ;
#142 = CARTESIAN_POINT ( 'NONE',  ( 6.213203435596435398, 3.000000000000000000, -15.00000000000000000 ) ) ;
#143 = CARTESIAN_POINT ( 'NONE',  ( -15.00000000000000000, 3.000000000000000000, -15.00000000000000000 ) ) ;
#144 = APPROVAL_DATE_TIME ( #590, #512 ) ;
#145 = VERTEX_POINT ( 'NONE', #516 ) ;
#146 = CARTESIAN_POINT ( 'NONE',  ( -15.00000000000000000, 3.000000000000000000, -6.213203435596430957 ) ) ;
#147 = COORDINATED_UNIVERSAL_TIME_OFFSET ( 8, 0, .AHEAD. ) ;
#148 = VECTOR ( 'NONE', #90, 1000.000000000000000 ) ;
#149 = ORIENTED_EDGE ( 'NONE', *, *, #474, .T. ) ;
#150 = EDGE_CURVE ( 'NONE', #89, #338, #214, .T. ) ;
#151 = CARTESIAN_POINT ( 'NONE',  ( 15.00000000000000000, 3.000000000000000000, 15.00000000000000000 ) ) ;
#152 =( NAMED_UNIT ( * ) PLANE_ANGLE_UNIT ( ) SI_UNIT ( $, .RADIAN. ) );
#153 = ORIENTED_EDGE ( 'NONE', *, *, #194, .T. ) ;
#154 = EDGE_CURVE ( 'NONE', #338, #402, #465, .T. ) ;
#155 = LINE ( 'NONE', #247, #575 ) ;
#156 = ORIENTED_EDGE ( 'NONE', *, *, #189, .F. ) ;
#157 = CALENDAR_DATE ( 2025, 19, 9 ) ;
#158 = ORIENTED_EDGE ( 'NONE', *, *, #509, .F. ) ;
#159 = CARTESIAN_POINT ( 'NONE',  ( 15.00000000000000000, 3.000000000000000000, -15.00000000000000000 ) ) ;
#160 = DIRECTION ( 'NONE',  ( 0.7071067811865474617, 0.000000000000000000, -0.7071067811865476838 ) ) ;
#161 = VERTEX_POINT ( 'NONE', #416 ) ;
#162 = ORIENTED_EDGE ( 'NONE', *, *, #544, .T. ) ;
#163 = APPROVAL_PERSON_ORGANIZATION ( #293, #3, #248 ) ;
#164 = DIRECTION ( 'NONE',  ( -0.000000000000000000, -1.000000000000000000, -0.000000000000000000 ) ) ;
#165 = VERTEX_POINT ( 'NONE', #606 ) ;
#166 = DATE_AND_TIME ( #565, #240 ) ;
#167 = CARTESIAN_POINT ( 'NONE',  ( 1.734723475976807094E-15, 0.000000000000000000, -21.21320343559643362 ) ) ;
#168 = DIRECTION ( 'NONE',  ( 0.000000000000000000, -1.000000000000000000, 0.000000000000000000 ) ) ;
#169 = LINE ( 'NONE', #621, #531 ) ;
#170 = PERSON_AND_ORGANIZATION_ROLE ( 'classification_officer' ) ;
#171 = EDGE_CURVE ( 'NONE', #165, #265, #169, .T. ) ;
#172 = AXIS2_PLACEMENT_3D ( 'NONE', #407, #57, #359 ) ;
#173 = CC_DESIGN_SECURITY_CLASSIFICATION ( #80, ( #553 ) ) ;
#174 = FACE_OUTER_BOUND ( 'NONE', #35, .T. ) ;
#175 = EDGE_LOOP ( 'NONE', ( #436, #504, #568, #79 ) ) ;
#176 = PLANE ( 'NONE',  #33 ) ;
#177 = CARTESIAN_POINT ( 'NONE',  ( -21.21320343559642652, 3.000000000000000000, -1.734723475976807094E-15 ) ) ;
#178 = ORIENTED_EDGE ( 'NONE', *, *, #232, .F. ) ;
#179 = DIRECTION ( 'NONE',  ( 0.000000000000000000, 0.000000000000000000, -1.000000000000000000 ) ) ;
#180 = ORIENTED_EDGE ( 'NONE', *, *, #32, .T. ) ;
#181 = AXIS2_PLACEMENT_3D ( 'NONE', #330, #429, #135 ) ;
#182 = DIRECTION ( 'NONE',  ( -0.7071067811865474617, -0.000000000000000000, -0.7071067811865475727 ) ) ;
#183 = ADVANCED_FACE ( 'NONE', ( #617 ), #435, .F. ) ;
#184 = ORIENTED_EDGE ( 'NONE', *, *, #344, .T. ) ;
#185 = LINE ( 'NONE', #532, #99 ) ;
#186 = VERTEX_POINT ( 'NONE', #187 ) ;
#187 = CARTESIAN_POINT ( 'NONE',  ( -15.00000000000000000, 0.000000000000000000, 6.213203435596425628 ) ) ;
#188 = PLANE ( 'NONE',  #364 ) ;
#189 = EDGE_CURVE ( 'NONE', #110, #7, #78, .T. ) ;
#190 = CARTESIAN_POINT ( 'NONE',  ( -15.00000000000000000, 3.000000000000000000, 6.213203435596425628 ) ) ;
#191 = VECTOR ( 'NONE', #365, 1000.000000000000000 ) ;
#192 = VECTOR ( 'NONE', #197, 1000.000000000000000 ) ;
#193 = LINE ( 'NONE', #142, #473 ) ;
#194 = EDGE_CURVE ( 'NONE', #225, #210, #30, .T. ) ;
#195 = DIRECTION ( 'NONE',  ( 1.000000000000000000, 0.000000000000000000, 0.000000000000000000 ) ) ;
#196 = DIRECTION ( 'NONE',  ( 1.000000000000000000, 0.000000000000000000, 0.000000000000000000 ) ) ;
#197 = DIRECTION ( 'NONE',  ( 0.000000000000000000, 0.000000000000000000, 1.000000000000000000 ) ) ;
#198 = CARTESIAN_POINT ( 'NONE',  ( 1.734723475976807094E-15, 3.000000000000000000, -21.21320343559643362 ) ) ;
#199 = ORIENTED_EDGE ( 'NONE', *, *, #154, .F. ) ;
#200 = CARTESIAN_POINT ( 'NONE',  ( 1.734723475976807094E-15, 3.000000000000000000, -21.21320343559643362 ) ) ;
#201 = LINE ( 'NONE', #546, #329 ) ;
#202 = ORIENTED_EDGE ( 'NONE', *, *, #285, .T. ) ;
#203 = EDGE_CURVE ( 'NONE', #610, #601, #185, .T. ) ;
#204 = CC_DESIGN_APPROVAL ( #299, ( #80 ) ) ;
#205 = DIRECTION ( 'NONE',  ( 1.000000000000000000, 0.000000000000000000, 0.000000000000000000 ) ) ;
#206 = VERTEX_POINT ( 'NONE', #477 ) ;
#207 = CARTESIAN_POINT ( 'NONE',  ( -15.00000000000000000, 3.000000000000000000, -6.213203435596430957 ) ) ;
#208 = CARTESIAN_POINT ( 'NONE',  ( -21.21320343559642652, 3.000000000000000000, -1.734723475976807094E-15 ) ) ;
#209 = PERSON_AND_ORGANIZATION ( #530, #317 ) ;
#210 = VERTEX_POINT ( 'NONE', #389 ) ;
#211 = PLANE ( 'NONE',  #430 ) ;
#212 = AXIS2_PLACEMENT_3D ( 'NONE', #522, #518, #279 ) ;
#213 =( GEOMETRIC_REPRESENTATION_CONTEXT ( 3 ) GLOBAL_UNCERTAINTY_ASSIGNED_CONTEXT ( ( #623 ) ) GLOBAL_UNIT_ASSIGNED_CONTEXT ( ( #438, #152, #55 ) ) REPRESENTATION_CONTEXT ( 'NONE', 'WORKASPACE' ) );
#214 = LINE ( 'NONE', #177, #463 ) ;
#215 = CARTESIAN_POINT ( 'NONE',  ( -6.213203435596434510, 0.000000000000000000, -15.00000000000000000 ) ) ;
#216 = DIRECTION ( 'NONE',  ( 0.000000000000000000, 0.000000000000000000, 1.000000000000000000 ) ) ;
#217 = EDGE_LOOP ( 'NONE', ( #443, #454, #289, #327 ) ) ;
#218 = EDGE_CURVE ( 'NONE', #134, #110, #231, .T. ) ;
#219 = PLANE ( 'NONE',  #608 ) ;
#220 = ORIENTED_EDGE ( 'NONE', *, *, #150, .T. ) ;
#221 = LINE ( 'NONE', #321, #412 ) ;
#222 = EDGE_CURVE ( 'NONE', #349, #186, #333, .T. ) ;
#223 = VECTOR ( 'NONE', #9, 1000.000000000000000 ) ;
#224 = DIRECTION ( 'NONE',  ( -0.7071067811865474617, 0.000000000000000000, 0.7071067811865475727 ) ) ;
#225 = VERTEX_POINT ( 'NONE', #624 ) ;
#226 = CARTESIAN_POINT ( 'NONE',  ( 1.734723475976807094E-15, 3.000000000000000000, 21.21320343559642652 ) ) ;
#227 = DIRECTION ( 'NONE',  ( -0.7071067811865474617, -0.000000000000000000, -0.7071067811865475727 ) ) ;
#228 = ORIENTED_EDGE ( 'NONE', *, *, #295, .T. ) ;
#229 = FACE_OUTER_BOUND ( 'NONE', #217, .T. ) ;
#230 = ORIENTED_EDGE ( 'NONE', *, *, #171, .T. ) ;
#231 = LINE ( 'NONE', #385, #290 ) ;
#232 = EDGE_CURVE ( 'NONE', #555, #251, #36, .T. ) ;
#233 = DIRECTION ( 'NONE',  ( -0.7071067811865474617, 0.000000000000000000, -0.7071067811865474617 ) ) ;
#234 = ORIENTED_EDGE ( 'NONE', *, *, #456, .F. ) ;
#235 = CARTESIAN_POINT ( 'NONE',  ( -15.00000000000000000, 3.000000000000000000, -15.00000000000000000 ) ) ;
#236 = COORDINATED_UNIVERSAL_TIME_OFFSET ( 8, 0, .AHEAD. ) ;
#237 = ORIENTED_EDGE ( 'NONE', *, *, #448, .T. ) ;
#238 = LINE ( 'NONE', #441, #611 ) ;
#239 = FACE_OUTER_BOUND ( 'NONE', #263, .T. ) ;
#240 = LOCAL_TIME ( 17, 47, 47.00000000000000000, #508 ) ;
#241 = APPLICATION_PROTOCOL_DEFINITION ( 'international standard', 'config_control_design', 1994, #388 ) ;
#242 = ORIENTED_EDGE ( 'NONE', *, *, #335, .F. ) ;
#243 = DIRECTION ( 'NONE',  ( -1.000000000000000000, 0.000000000000000000, 0.000000000000000000 ) ) ;
#244 = MECHANICAL_CONTEXT ( 'NONE', #548, 'mechanical' ) ;
#245 = ORIENTED_EDGE ( 'NONE', *, *, #523, .F. ) ;
#246 = ADVANCED_FACE ( 'NONE', ( #229 ), #480, .F. ) ;
#247 = CARTESIAN_POINT ( 'NONE',  ( -15.00000000000000000, 0.000000000000000000, -15.00000000000000000 ) ) ;
#248 = APPROVAL_ROLE ( '' ) ;
#249 = ORIENTED_EDGE ( 'NONE', *, *, #470, .T. ) ;
#250 = CARTESIAN_POINT ( 'NONE',  ( -15.00000000000000000, 0.000000000000000000, -15.00000000000000000 ) ) ;
#251 = VERTEX_POINT ( 'NONE', #475 ) ;
#252 = VECTOR ( 'NONE', #599, 1000.000000000000000 ) ;
#253 = DIRECTION ( 'NONE',  ( 1.000000000000000000, 0.000000000000000000, 0.000000000000000000 ) ) ;
#254 = CARTESIAN_POINT ( 'NONE',  ( 15.00000000000000000, 3.000000000000000000, -15.00000000000000000 ) ) ;
#255 = EDGE_LOOP ( 'NONE', ( #404, #178, #362, #284 ) ) ;
#256 = ADVANCED_FACE ( 'NONE', ( #569 ), #337, .F. ) ;
#257 = CARTESIAN_POINT ( 'NONE',  ( 15.00000000000000000, 3.000000000000000000, 15.00000000000000000 ) ) ;
#258 = CARTESIAN_POINT ( 'NONE',  ( 1.734723475976807094E-15, 3.000000000000000000, 21.21320343559642652 ) ) ;
#259 = DATE_TIME_ROLE ( 'classification_date' ) ;
#260 = AXIS2_PLACEMENT_3D ( 'NONE', #130, #40, #233 ) ;
#261 = AXIS2_PLACEMENT_3D ( 'NONE', #288, #390, #196 ) ;
#262 = CARTESIAN_POINT ( 'NONE',  ( 15.00000000000000000, 3.000000000000000000, -15.00000000000000000 ) ) ;
#263 = EDGE_LOOP ( 'NONE', ( #400, #230, #245, #75 ) ) ;
#264 = DIRECTION ( 'NONE',  ( 0.7071067811865474617, 0.000000000000000000, -0.7071067811865475727 ) ) ;
#265 = VERTEX_POINT ( 'NONE', #482 ) ;
#266 = ADVANCED_FACE ( 'NONE', ( #28 ), #625, .F. ) ;
#267 = DIRECTION ( 'NONE',  ( 0.7071067811865474617, 0.000000000000000000, 0.7071067811865475727 ) ) ;
#268 = VERTEX_POINT ( 'NONE', #379 ) ;
#269 = CARTESIAN_POINT ( 'NONE',  ( -15.00000000000000000, 0.000000000000000000, -15.00000000000000000 ) ) ;
#270 = ADVANCED_FACE ( 'NONE', ( #576 ), #572, .F. ) ;
#271 = CLOSED_SHELL ( 'NONE', ( #132, #246, #631, #46, #462, #54, #39, #270, #81, #116, #183, #363, #256, #408, #306, #433, #266, #139 ) ) ;
#272 = CC_DESIGN_APPROVAL ( #3, ( #553 ) ) ;
#273 = DIRECTION ( 'NONE',  ( 0.000000000000000000, -1.000000000000000000, 0.000000000000000000 ) ) ;
#274 = ORIENTED_EDGE ( 'NONE', *, *, #203, .F. ) ;
#275 = EDGE_CURVE ( 'NONE', #402, #298, #133, .T. ) ;
#276 = DIRECTION ( 'NONE',  ( -0.7071067811865474617, -0.000000000000000000, 0.7071067811865476838 ) ) ;
#277 = CARTESIAN_POINT ( 'NONE',  ( 1.734723475976807094E-15, 3.000000000000000000, -21.21320343559643362 ) ) ;
#278 = AXIS2_PLACEMENT_3D ( 'NONE', #319, #369, #471 ) ;
#279 = DIRECTION ( 'NONE',  ( -1.000000000000000000, 0.000000000000000000, -0.000000000000000000 ) ) ;
#280 = EDGE_CURVE ( 'NONE', #555, #434, #128, .T. ) ;
#281 = VERTEX_POINT ( 'NONE', #31 ) ;
#282 = LINE ( 'NONE', #437, #451 ) ;
#283 = CARTESIAN_POINT ( 'NONE',  ( 6.213203435596427404, 3.000000000000000000, 15.00000000000000000 ) ) ;
#284 = ORIENTED_EDGE ( 'NONE', *, *, #66, .T. ) ;
#285 = EDGE_CURVE ( 'NONE', #106, #281, #432, .T. ) ;
#286 = DIRECTION ( 'NONE',  ( 1.000000000000000000, 0.000000000000000000, 0.000000000000000000 ) ) ;
#287 = LINE ( 'NONE', #442, #118 ) ;
#288 = CARTESIAN_POINT ( 'NONE',  ( 0.000000000000000000, 0.000000000000000000, 0.000000000000000000 ) ) ;
#289 = ORIENTED_EDGE ( 'NONE', *, *, #280, .F. ) ;
#290 = VECTOR ( 'NONE', #182, 1000.000000000000000 ) ;
#291 = DIRECTION ( 'NONE',  ( 1.000000000000000000, 0.000000000000000000, 0.000000000000000000 ) ) ;
#292 = VECTOR ( 'NONE', #551, 1000.000000000000000 ) ;
#293 = PERSON_AND_ORGANIZATION ( #530, #317 ) ;
#294 = ORIENTED_EDGE ( 'NONE', *, *, #62, .F. ) ;
#295 = EDGE_CURVE ( 'NONE', #338, #7, #282, .T. ) ;
#296 = CARTESIAN_POINT ( 'NONE',  ( 15.00000000000000000, 0.000000000000000000, -15.00000000000000000 ) ) ;
#297 = APPROVAL_STATUS ( 'not_yet_approved' ) ;
#298 = VERTEX_POINT ( 'NONE', #207 ) ;
#299 = APPROVAL ( #121, '未指定' ) ;
#300 = CARTESIAN_POINT ( 'NONE',  ( 1.734723475976807094E-15, 3.000000000000000000, -21.21320343559643362 ) ) ;
#301 = CARTESIAN_POINT ( 'NONE',  ( 21.21320343559642652, 3.000000000000000000, -2.602085213965210642E-15 ) ) ;
#302 = ORIENTED_EDGE ( 'NONE', *, *, #218, .T. ) ;
#303 = FACE_OUTER_BOUND ( 'NONE', #543, .T. ) ;
#304 = CARTESIAN_POINT ( 'NONE',  ( 21.21320343559642652, 0.000000000000000000, -2.602085213965210642E-15 ) ) ;
#305 = ORIENTED_EDGE ( 'NONE', *, *, #66, .F. ) ;
#306 = ADVANCED_FACE ( 'NONE', ( #393 ), #138, .F. ) ;
#307 = PERSON_AND_ORGANIZATION_ROLE ( 'design_supplier' ) ;
#308 = VECTOR ( 'NONE', #324, 1000.000000000000000 ) ;
#309 = ORIENTED_EDGE ( 'NONE', *, *, #32, .F. ) ;
#310 = AXIS2_PLACEMENT_3D ( 'NONE', #208, #395, #160 ) ;
#311 = DIRECTION ( 'NONE',  ( -0.000000000000000000, -0.000000000000000000, -1.000000000000000000 ) ) ;
#312 = DIRECTION ( 'NONE',  ( -0.7071067811865475727, 0.000000000000000000, -0.7071067811865474617 ) ) ;
#313 = PLANE ( 'NONE',  #602 ) ;
#314 = VERTEX_POINT ( 'NONE', #536 ) ;
#315 = DIRECTION ( 'NONE',  ( -0.7071067811865474617, 0.000000000000000000, -0.7071067811865474617 ) ) ;
#316 = CARTESIAN_POINT ( 'NONE',  ( 6.213203435596435398, 3.000000000000000000, -15.00000000000000000 ) ) ;
#317 = ORGANIZATION ( '未指定', '未指定', '' ) ;
#318 = EDGE_CURVE ( 'NONE', #7, #489, #111, .T. ) ;
#319 = CARTESIAN_POINT ( 'NONE',  ( -21.21320343559642652, 3.000000000000000000, -1.734723475976807094E-15 ) ) ;
#320 = PERSON_AND_ORGANIZATION ( #530, #317 ) ;
#321 = CARTESIAN_POINT ( 'NONE',  ( 15.00000000000000000, 3.000000000000000000, -15.00000000000000000 ) ) ;
#322 = CARTESIAN_POINT ( 'NONE',  ( 1.734723475976807094E-15, 0.000000000000000000, 21.21320343559642652 ) ) ;
#323 = ORIENTED_EDGE ( 'NONE', *, *, #104, .T. ) ;
#324 = DIRECTION ( 'NONE',  ( 0.7071067811865474617, 0.000000000000000000, -0.7071067811865475727 ) ) ;
#325 = CC_DESIGN_PERSON_AND_ORGANIZATION_ASSIGNMENT ( #542, #41, ( #350 ) ) ;
#326 = DIRECTION ( 'NONE',  ( -0.7071067811865474617, -0.000000000000000000, 0.7071067811865476838 ) ) ;
#327 = ORIENTED_EDGE ( 'NONE', *, *, #27, .F. ) ;
#328 = EDGE_CURVE ( 'NONE', #48, #281, #107, .T. ) ;
#329 = VECTOR ( 'NONE', #497, 1000.000000000000000 ) ;
#330 = CARTESIAN_POINT ( 'NONE',  ( 1.734723475976807094E-15, 3.000000000000000000, 21.21320343559642652 ) ) ;
#331 = CARTESIAN_POINT ( 'NONE',  ( -6.213203435596425628, 3.000000000000000000, 15.00000000000000000 ) ) ;
#332 = ORIENTED_EDGE ( 'NONE', *, *, #414, .T. ) ;
#333 = LINE ( 'NONE', #383, #380 ) ;
#334 = VECTOR ( 'NONE', #311, 1000.000000000000000 ) ;
#335 = EDGE_CURVE ( 'NONE', #601, #472, #339, .T. ) ;
#336 = VECTOR ( 'NONE', #444, 1000.000000000000000 ) ;
#337 = PLANE ( 'NONE',  #540 ) ;
#338 = VERTEX_POINT ( 'NONE', #587 ) ;
#339 = LINE ( 'NONE', #535, #136 ) ;
#340 = DIRECTION ( 'NONE',  ( -0.000000000000000000, -1.000000000000000000, -0.000000000000000000 ) ) ;
#341 = DIRECTION ( 'NONE',  ( -0.000000000000000000, -1.000000000000000000, 0.000000000000000000 ) ) ;
#342 = CARTESIAN_POINT ( 'NONE',  ( 15.00000000000000000, 3.000000000000000000, -6.213203435596434510 ) ) ;
#343 = VERTEX_POINT ( 'NONE', #486 ) ;
#344 = EDGE_CURVE ( 'NONE', #298, #161, #457, .T. ) ;
#345 = VECTOR ( 'NONE', #525, 1000.000000000000000 ) ;
#346 = VECTOR ( 'NONE', #498, 1000.000000000000114 ) ;
#347 = LINE ( 'NONE', #146, #627 ) ;
#348 = LINE ( 'NONE', #630, #26 ) ;
#349 = VERTEX_POINT ( 'NONE', #190 ) ;
#350 = PRODUCT_DEFINITION ( '未知', '', #553, #524 ) ;
#351 = DIRECTION ( 'NONE',  ( 0.7071067811865474617, 0.000000000000000000, -0.7071067811865475727 ) ) ;
#352 = LINE ( 'NONE', #626, #586 ) ;
#353 = ORIENTED_EDGE ( 'NONE', *, *, #414, .F. ) ;
#354 = MANIFOLD_SOLID_BREP ( '凸台-拉伸2', #271 ) ;
#355 = CARTESIAN_POINT ( 'NONE',  ( 15.00000000000000000, 3.000000000000000000, -15.00000000000000000 ) ) ;
#356 = EDGE_LOOP ( 'NONE', ( #614, #353, #234, #309, #529, #580, #598, #156, #459, #622, #158, #305, #481, #374, #242, #384 ) ) ;
#357 = APPROVAL_DATE_TIME ( #560, #299 ) ;
#358 = ORIENTED_EDGE ( 'NONE', *, *, #96, .T. ) ;
#359 = DIRECTION ( 'NONE',  ( 1.000000000000000000, 0.000000000000000000, -0.000000000000000000 ) ) ;
#360 = DIRECTION ( 'NONE',  ( -0.000000000000000000, -1.000000000000000000, -0.000000000000000000 ) ) ;
#361 = ORIENTED_EDGE ( 'NONE', *, *, #425, .T. ) ;
#362 = ORIENTED_EDGE ( 'NONE', *, *, #280, .T. ) ;
#363 = ADVANCED_FACE ( 'NONE', ( #303 ), #588, .F. ) ;
#364 = AXIS2_PLACEMENT_3D ( 'NONE', #198, #45, #492 ) ;
#365 = DIRECTION ( 'NONE',  ( 0.7071067811865474617, 0.000000000000000000, -0.7071067811865475727 ) ) ;
#366 = LINE ( 'NONE', #510, #13 ) ;
#367 = COORDINATED_UNIVERSAL_TIME_OFFSET ( 8, 0, .AHEAD. ) ;
#368 = EDGE_CURVE ( 'NONE', #225, #343, #238, .T. ) ;
#369 = DIRECTION ( 'NONE',  ( 0.7071067811865476838, -0.000000000000000000, 0.7071067811865474617 ) ) ;
#370 = SHAPE_DEFINITION_REPRESENTATION ( #428, #494 ) ;
#371 = LINE ( 'NONE', #269, #585 ) ;
#372 = VECTOR ( 'NONE', #399, 1000.000000000000000 ) ;
#373 = CARTESIAN_POINT ( 'NONE',  ( 1.734723475976807094E-15, 3.000000000000000000, -21.21320343559643362 ) ) ;
#374 = ORIENTED_EDGE ( 'NONE', *, *, #394, .F. ) ;
#375 = EDGE_LOOP ( 'NONE', ( #103, #202, #584, #361 ) ) ;
#376 = EDGE_CURVE ( 'NONE', #134, #85, #193, .T. ) ;
#377 = DIRECTION ( 'NONE',  ( 1.000000000000000000, 0.000000000000000000, -0.000000000000000000 ) ) ;
#378 = ORIENTED_EDGE ( 'NONE', *, *, #561, .T. ) ;
#379 = CARTESIAN_POINT ( 'NONE',  ( -15.00000000000000000, 3.000000000000000000, 15.00000000000000000 ) ) ;
#380 = VECTOR ( 'NONE', #582, 1000.000000000000000 ) ;
#381 = VECTOR ( 'NONE', #398, 1000.000000000000000 ) ;
#382 = CC_DESIGN_APPROVAL ( #512, ( #350 ) ) ;
#383 = CARTESIAN_POINT ( 'NONE',  ( -15.00000000000000000, 3.000000000000000000, 6.213203435596424740 ) ) ;
#384 = ORIENTED_EDGE ( 'NONE', *, *, #76, .F. ) ;
#385 = CARTESIAN_POINT ( 'NONE',  ( 1.734723475976807094E-15, 0.000000000000000000, -21.21320343559643362 ) ) ;
#386 = ORIENTED_EDGE ( 'NONE', *, *, #27, .T. ) ;
#387 = EDGE_CURVE ( 'NONE', #89, #110, #591, .T. ) ;
#388 = APPLICATION_CONTEXT ( 'configuration controlled 3d designs of mechanical parts and assemblies' ) ;
#389 = CARTESIAN_POINT ( 'NONE',  ( -6.213203435596425628, 3.000000000000000000, 15.00000000000000000 ) ) ;
#390 = DIRECTION ( 'NONE',  ( 0.000000000000000000, 0.000000000000000000, 1.000000000000000000 ) ) ;
#391 = VERTEX_POINT ( 'NONE', #47 ) ;
#392 = CARTESIAN_POINT ( 'NONE',  ( -15.00000000000000000, 0.000000000000000000, -15.00000000000000000 ) ) ;
#393 = FACE_OUTER_BOUND ( 'NONE', #446, .T. ) ;
#394 = EDGE_CURVE ( 'NONE', #472, #106, #537, .T. ) ;
#395 = DIRECTION ( 'NONE',  ( 0.7071067811865476838, -0.000000000000000000, 0.7071067811865474617 ) ) ;
#396 = PERSON_AND_ORGANIZATION ( #530, #317 ) ;
#397 = ORIENTED_EDGE ( 'NONE', *, *, #425, .F. ) ;
#398 = DIRECTION ( 'NONE',  ( -0.7071067811865474617, -0.000000000000000000, -0.7071067811865475727 ) ) ;
#399 = DIRECTION ( 'NONE',  ( 1.000000000000000000, 0.000000000000000000, 0.000000000000000000 ) ) ;
#400 = ORIENTED_EDGE ( 'NONE', *, *, #439, .F. ) ;
#401 = DIRECTION ( 'NONE',  ( -0.000000000000000000, -1.000000000000000000, -0.000000000000000000 ) ) ;
#402 = VERTEX_POINT ( 'NONE', #143 ) ;
#403 = PLANE ( 'NONE',  #521 ) ;
#404 = ORIENTED_EDGE ( 'NONE', *, *, #533, .F. ) ;
#405 = PERSON_AND_ORGANIZATION ( #530, #317 ) ;
#406 = ORIENTED_EDGE ( 'NONE', *, *, #275, .T. ) ;
#407 = CARTESIAN_POINT ( 'NONE',  ( -15.00000000000000000, 3.000000000000000000, -15.00000000000000000 ) ) ;
#408 = ADVANCED_FACE ( 'NONE', ( #97 ), #403, .F. ) ;
#409 = LINE ( 'NONE', #600, #422 ) ;
#410 = ORIENTED_EDGE ( 'NONE', *, *, #470, .F. ) ;
#411 = DIRECTION ( 'NONE',  ( 0.000000000000000000, -1.000000000000000000, 0.000000000000000000 ) ) ;
#412 = VECTOR ( 'NONE', #73, 1000.000000000000000 ) ;
#413 = CARTESIAN_POINT ( 'NONE',  ( 1.734723475976807094E-15, 3.000000000000000000, -21.21320343559643362 ) ) ;
#414 = EDGE_CURVE ( 'NONE', #314, #225, #44, .T. ) ;
#415 = PERSON_AND_ORGANIZATION_ROLE ( 'creator' ) ;
#416 = CARTESIAN_POINT ( 'NONE',  ( -21.21320343559642652, 3.000000000000000000, -1.734723475976807094E-15 ) ) ;
#417 = DATE_AND_TIME ( #511, #14 ) ;
#418 = CC_DESIGN_PERSON_AND_ORGANIZATION_ASSIGNMENT ( #209, #307, ( #553 ) ) ;
#419 = CARTESIAN_POINT ( 'NONE',  ( 0.000000000000000000, 0.000000000000000000, 0.000000000000000000 ) ) ;
#420 = ORIENTED_EDGE ( 'NONE', *, *, #495, .T. ) ;
#421 = FACE_OUTER_BOUND ( 'NONE', #427, .T. ) ;
#422 = VECTOR ( 'NONE', #360, 1000.000000000000000 ) ;
#423 = DIRECTION ( 'NONE',  ( -0.7071067811865474617, -0.000000000000000000, 0.7071067811865476838 ) ) ;
#424 = ORIENTED_EDGE ( 'NONE', *, *, #335, .T. ) ;
#425 = EDGE_CURVE ( 'NONE', #48, #472, #94, .T. ) ;
#426 = CARTESIAN_POINT ( 'NONE',  ( -15.00000000000000000, 3.000000000000000000, -15.00000000000000000 ) ) ;
#427 = EDGE_LOOP ( 'NONE', ( #526, #126, #505, #180 ) ) ;
#428 = PRODUCT_DEFINITION_SHAPE ( 'NONE', 'NONE',  #350 ) ;
#429 = DIRECTION ( 'NONE',  ( -0.7071067811865475727, 0.000000000000000000, -0.7071067811865474617 ) ) ;
#430 = AXIS2_PLACEMENT_3D ( 'NONE', #419, #603, #64 ) ;
#431 = LOCAL_TIME ( 17, 47, 47.00000000000000000, #72 ) ;
#432 = LINE ( 'NONE', #86, #148 ) ;
#433 = ADVANCED_FACE ( 'NONE', ( #5 ), #101, .F. ) ;
#434 = VERTEX_POINT ( 'NONE', #304 ) ;
#435 = PLANE ( 'NONE',  #212 ) ;
#436 = ORIENTED_EDGE ( 'NONE', *, *, #485, .T. ) ;
#437 = CARTESIAN_POINT ( 'NONE',  ( -6.213203435596434510, 3.000000000000000000, -15.00000000000000000 ) ) ;
#438 =( LENGTH_UNIT ( ) NAMED_UNIT ( * ) SI_UNIT ( .MILLI., .METRE. ) );
#439 = EDGE_CURVE ( 'NONE', #165, #298, #347, .T. ) ;
#440 = VECTOR ( 'NONE', #205, 1000.000000000000000 ) ;
#441 = CARTESIAN_POINT ( 'NONE',  ( -21.21320343559642652, 0.000000000000000000, -1.734723475976807094E-15 ) ) ;
#442 = CARTESIAN_POINT ( 'NONE',  ( -15.00000000000000000, 3.000000000000000000, 15.00000000000000000 ) ) ;
#443 = ORIENTED_EDGE ( 'NONE', *, *, #285, .F. ) ;
#444 = DIRECTION ( 'NONE',  ( -0.000000000000000000, -1.000000000000000000, -0.000000000000000000 ) ) ;
#445 = FACE_OUTER_BOUND ( 'NONE', #255, .T. ) ;
#446 = EDGE_LOOP ( 'NONE', ( #29, #484, #466, #420 ) ) ;
#447 = CARTESIAN_POINT ( 'NONE',  ( -15.00000000000000000, 3.000000000000000000, -15.00000000000000000 ) ) ;
#448 = EDGE_CURVE ( 'NONE', #550, #610, #595, .T. ) ;
#449 = DIRECTION ( 'NONE',  ( -0.000000000000000000, -1.000000000000000000, -0.000000000000000000 ) ) ;
#450 = ORIENTED_EDGE ( 'NONE', *, *, #76, .T. ) ;
#451 = VECTOR ( 'NONE', #341, 1000.000000000000000 ) ;
#452 = AXIS2_PLACEMENT_3D ( 'NONE', #254, #243, #487 ) ;
#453 = LINE ( 'NONE', #355, #129 ) ;
#454 = ORIENTED_EDGE ( 'NONE', *, *, #119, .T. ) ;
#455 = EDGE_LOOP ( 'NONE', ( #199, #228, #493, #61 ) ) ;
#456 = EDGE_CURVE ( 'NONE', #186, #314, #597, .T. ) ;
#457 = LINE ( 'NONE', #8, #292 ) ;
#458 = DIRECTION ( 'NONE',  ( -0.000000000000000000, -1.000000000000000000, -0.000000000000000000 ) ) ;
#459 = ORIENTED_EDGE ( 'NONE', *, *, #218, .F. ) ;
#460 = PRODUCT_RELATED_PRODUCT_CATEGORY ( 'detail', '', ( #83 ) ) ;
#461 = PLANE ( 'NONE',  #618 ) ;
#462 = ADVANCED_FACE ( 'NONE', ( #239 ), #105, .F. ) ;
#463 = VECTOR ( 'NONE', #423, 1000.000000000000000 ) ;
#464 = CARTESIAN_POINT ( 'NONE',  ( 6.213203435596434510, 0.000000000000000000, -15.00000000000000000 ) ) ;
#465 = LINE ( 'NONE', #613, #552 ) ;
#466 = ORIENTED_EDGE ( 'NONE', *, *, #561, .F. ) ;
#467 = CC_DESIGN_DATE_AND_TIME_ASSIGNMENT ( #166, #259, ( #80 ) ) ;
#468 = FACE_OUTER_BOUND ( 'NONE', #616, .T. ) ;
#469 = ORIENTED_EDGE ( 'NONE', *, *, #37, .F. ) ;
#470 = EDGE_CURVE ( 'NONE', #85, #89, #59, .T. ) ;
#471 = DIRECTION ( 'NONE',  ( 0.7071067811865474617, 0.000000000000000000, -0.7071067811865476838 ) ) ;
#472 = VERTEX_POINT ( 'NONE', #549 ) ;
#473 = VECTOR ( 'NONE', #501, 1000.000000000000000 ) ;
#474 = EDGE_CURVE ( 'NONE', #161, #349, #496, .T. ) ;
#475 = CARTESIAN_POINT ( 'NONE',  ( 15.00000000000000000, 3.000000000000000000, -6.213203435596434510 ) ) ;
#476 = ORIENTED_EDGE ( 'NONE', *, *, #581, .T. ) ;
#477 = CARTESIAN_POINT ( 'NONE',  ( 15.00000000000000000, 0.000000000000000000, -6.213203435596434510 ) ) ;
#478 = DIRECTION ( 'NONE',  ( -0.000000000000000000, -1.000000000000000000, -0.000000000000000000 ) ) ;
#479 = VECTOR ( 'NONE', #168, 1000.000000000000000 ) ;
#480 = PLANE ( 'NONE',  #181 ) ;
#481 = ORIENTED_EDGE ( 'NONE', *, *, #119, .F. ) ;
#482 = CARTESIAN_POINT ( 'NONE',  ( -21.21320343559642652, 0.000000000000000000, -1.734723475976807094E-15 ) ) ;
#483 = CALENDAR_DATE ( 2025, 19, 9 ) ;
#484 = ORIENTED_EDGE ( 'NONE', *, *, #376, .T. ) ;
#485 = EDGE_CURVE ( 'NONE', #489, #165, #155, .T. ) ;
#486 = CARTESIAN_POINT ( 'NONE',  ( 1.734723475976807094E-15, 0.000000000000000000, 21.21320343559642652 ) ) ;
#487 = DIRECTION ( 'NONE',  ( 0.000000000000000000, 0.000000000000000000, 1.000000000000000000 ) ) ;
#488 = APPLICATION_PROTOCOL_DEFINITION ( 'international standard', 'config_control_design', 1994, #548 ) ;
#489 = VERTEX_POINT ( 'NONE', #250 ) ;
#490 = VECTOR ( 'NONE', #164, 1000.000000000000000 ) ;
#491 = CARTESIAN_POINT ( 'NONE',  ( -15.00000000000000000, 0.000000000000000000, 15.00000000000000000 ) ) ;
#492 = DIRECTION ( 'NONE',  ( 0.7071067811865474617, 0.000000000000000000, 0.7071067811865475727 ) ) ;
#493 = ORIENTED_EDGE ( 'NONE', *, *, #318, .T. ) ;
#494 = ADVANCED_BREP_SHAPE_REPRESENTATION ( 'Handkerchief', ( #354, #261 ), #213 ) ;
#495 = EDGE_CURVE ( 'NONE', #145, #391, #453, .T. ) ;
#496 = LINE ( 'NONE', #50, #346 ) ;
#497 = DIRECTION ( 'NONE',  ( -1.000000000000000000, -0.000000000000000000, -0.000000000000000000 ) ) ;
#498 = DIRECTION ( 'NONE',  ( 0.7071067811865474617, 0.000000000000000000, 0.7071067811865474617 ) ) ;
#499 = LINE ( 'NONE', #102, #372 ) ;
#500 = ORIENTED_EDGE ( 'NONE', *, *, #456, .T. ) ;
#501 = DIRECTION ( 'NONE',  ( 0.000000000000000000, 1.000000000000000000, -0.000000000000000000 ) ) ;
#502 = VECTOR ( 'NONE', #351, 1000.000000000000000 ) ;
#503 = CARTESIAN_POINT ( 'NONE',  ( 15.00000000000000000, 0.000000000000000000, -15.00000000000000000 ) ) ;
#504 = ORIENTED_EDGE ( 'NONE', *, *, #439, .T. ) ;
#505 = ORIENTED_EDGE ( 'NONE', *, *, #523, .T. ) ;
#506 = CC_DESIGN_PERSON_AND_ORGANIZATION_ASSIGNMENT ( #19, #415, ( #553 ) ) ;
#507 = LINE ( 'NONE', #114, #520 ) ;
#508 = COORDINATED_UNIVERSAL_TIME_OFFSET ( 8, 0, .AHEAD. ) ;
#509 = EDGE_CURVE ( 'NONE', #206, #391, #108, .T. ) ;
#510 = CARTESIAN_POINT ( 'NONE',  ( 1.734723475976807094E-15, 0.000000000000000000, 21.21320343559642652 ) ) ;
#511 = CALENDAR_DATE ( 2025, 19, 9 ) ;
#512 = APPROVAL ( #91, '未指定' ) ;
#513 = VECTOR ( 'NONE', #227, 1000.000000000000000 ) ;
#514 = FACE_OUTER_BOUND ( 'NONE', #356, .T. ) ;
#515 = DIRECTION ( 'NONE',  ( -0.7071067811865475727, 0.000000000000000000, 0.7071067811865474617 ) ) ;
#516 = CARTESIAN_POINT ( 'NONE',  ( 15.00000000000000000, 3.000000000000000000, -15.00000000000000000 ) ) ;
#517 = EDGE_LOOP ( 'NONE', ( #124, #519, #294, #564 ) ) ;
#518 = DIRECTION ( 'NONE',  ( 0.000000000000000000, 0.000000000000000000, -1.000000000000000000 ) ) ;
#519 = ORIENTED_EDGE ( 'NONE', *, *, #368, .T. ) ;
#520 = VECTOR ( 'NONE', #20, 1000.000000000000000 ) ;
#521 = AXIS2_PLACEMENT_3D ( 'NONE', #447, #291, #1 ) ;
#522 = CARTESIAN_POINT ( 'NONE',  ( -15.00000000000000000, 3.000000000000000000, 15.00000000000000000 ) ) ;
#523 = EDGE_CURVE ( 'NONE', #161, #265, #409, .T. ) ;
#524 = DESIGN_CONTEXT ( 'detailed design', #388, 'design' ) ;
#525 = DIRECTION ( 'NONE',  ( 0.000000000000000000, 0.000000000000000000, 1.000000000000000000 ) ) ;
#526 = ORIENTED_EDGE ( 'NONE', *, *, #222, .F. ) ;
#527 = EDGE_CURVE ( 'NONE', #268, #210, #287, .T. ) ;
#528 = DIRECTION ( 'NONE',  ( 0.000000000000000000, 1.000000000000000000, 0.000000000000000000 ) ) ;
#529 = ORIENTED_EDGE ( 'NONE', *, *, #171, .F. ) ;
#530 = PERSON ( '未指定', '未指定', '未指定', ('未指定'), ('未指定'), ('未指定') ) ;
#531 = VECTOR ( 'NONE', #326, 1000.000000000000000 ) ;
#532 = CARTESIAN_POINT ( 'NONE',  ( 6.213203435596427404, 3.000000000000000000, 15.00000000000000000 ) ) ;
#533 = EDGE_CURVE ( 'NONE', #251, #206, #589, .T. ) ;
#534 = PERSON_AND_ORGANIZATION_ROLE ( 'design_owner' ) ;
#535 = CARTESIAN_POINT ( 'NONE',  ( -15.00000000000000000, 0.000000000000000000, 15.00000000000000000 ) ) ;
#536 = CARTESIAN_POINT ( 'NONE',  ( -15.00000000000000000, 0.000000000000000000, 15.00000000000000000 ) ) ;
#537 = LINE ( 'NONE', #296, #67 ) ;
#538 = DATE_AND_TIME ( #95, #34 ) ;
#539 = ORIENTED_EDGE ( 'NONE', *, *, #527, .T. ) ;
#540 = AXIS2_PLACEMENT_3D ( 'NONE', #426, #125, #377 ) ;
#541 = DIRECTION ( 'NONE',  ( -0.000000000000000000, 1.000000000000000000, 0.000000000000000000 ) ) ;
#542 = PERSON_AND_ORGANIZATION ( #530, #317 ) ;
#543 = EDGE_LOOP ( 'NONE', ( #570, #71, #500, #100 ) ) ;
#544 = EDGE_CURVE ( 'NONE', #268, #314, #352, .T. ) ;
#545 = CARTESIAN_POINT ( 'NONE',  ( -15.00000000000000000, 0.000000000000000000, -15.00000000000000000 ) ) ;
#546 = CARTESIAN_POINT ( 'NONE',  ( -15.00000000000000000, 3.000000000000000000, -15.00000000000000000 ) ) ;
#547 = ORIENTED_EDGE ( 'NONE', *, *, #527, .F. ) ;
#548 = APPLICATION_CONTEXT ( 'configuration controlled 3d designs of mechanical parts and assemblies' ) ;
#549 = CARTESIAN_POINT ( 'NONE',  ( 15.00000000000000000, 0.000000000000000000, 15.00000000000000000 ) ) ;
#550 = VERTEX_POINT ( 'NONE', #140 ) ;
#551 = DIRECTION ( 'NONE',  ( -0.7071067811865474617, -0.000000000000000000, 0.7071067811865476838 ) ) ;
#552 = VECTOR ( 'NONE', #17, 1000.000000000000000 ) ;
#553 = PRODUCT_DEFINITION_FORMATION_WITH_SPECIFIED_SOURCE ( '任何', '', #83, .NOT_KNOWN. ) ;
#554 = LINE ( 'NONE', #322, #191 ) ;
#555 = VERTEX_POINT ( 'NONE', #301 ) ;
#556 = CARTESIAN_POINT ( 'NONE',  ( -21.21320343559642652, 3.000000000000000000, -1.734723475976807094E-15 ) ) ;
#557 = ORIENTED_EDGE ( 'NONE', *, *, #509, .T. ) ;
#558 = CC_DESIGN_PERSON_AND_ORGANIZATION_ASSIGNMENT ( #405, #170, ( #80 ) ) ;
#559 = DIRECTION ( 'NONE',  ( 0.000000000000000000, -0.000000000000000000, -1.000000000000000000 ) ) ;
#560 = DATE_AND_TIME ( #157, #431 ) ;
#561 = EDGE_CURVE ( 'NONE', #145, #85, #201, .T. ) ;
#562 = VECTOR ( 'NONE', #63, 1000.000000000000000 ) ;
#563 = LINE ( 'NONE', #167, #562 ) ;
#564 = ORIENTED_EDGE ( 'NONE', *, *, #96, .F. ) ;
#565 = CALENDAR_DATE ( 2025, 19, 9 ) ;
#566 = APPROVAL_PERSON_ORGANIZATION ( #320, #299, #113 ) ;
#567 = PLANE ( 'NONE',  #4 ) ;
#568 = ORIENTED_EDGE ( 'NONE', *, *, #275, .F. ) ;
#569 = FACE_OUTER_BOUND ( 'NONE', #455, .T. ) ;
#570 = ORIENTED_EDGE ( 'NONE', *, *, #104, .F. ) ;
#571 = CARTESIAN_POINT ( 'NONE',  ( -21.21320343559642652, 3.000000000000000000, -1.734723475976807094E-15 ) ) ;
#572 = PLANE ( 'NONE',  #260 ) ;
#573 = VECTOR ( 'NONE', #528, 1000.000000000000000 ) ;
#574 = VECTOR ( 'NONE', #276, 1000.000000000000000 ) ;
#575 = VECTOR ( 'NONE', #53, 1000.000000000000000 ) ;
#576 = FACE_OUTER_BOUND ( 'NONE', #517, .T. ) ;
#577 = ORIENTED_EDGE ( 'NONE', *, *, #533, .T. ) ;
#578 = CC_DESIGN_DATE_AND_TIME_ASSIGNMENT ( #538, #98, ( #350 ) ) ;
#579 = DIRECTION ( 'NONE',  ( -1.000000000000000000, 0.000000000000000000, -0.000000000000000000 ) ) ;
#580 = ORIENTED_EDGE ( 'NONE', *, *, #485, .F. ) ;
#581 = EDGE_CURVE ( 'NONE', #610, #48, #499, .T. ) ;
#582 = DIRECTION ( 'NONE',  ( 0.000000000000000000, -1.000000000000000000, 0.000000000000000000 ) ) ;
#583 = PERSON_AND_ORGANIZATION ( #530, #317 ) ;
#584 = ORIENTED_EDGE ( 'NONE', *, *, #328, .F. ) ;
#585 = VECTOR ( 'NONE', #69, 1000.000000000000000 ) ;
#586 = VECTOR ( 'NONE', #449, 1000.000000000000000 ) ;
#587 = CARTESIAN_POINT ( 'NONE',  ( -6.213203435596434510, 3.000000000000000000, -15.00000000000000000 ) ) ;
#588 = PLANE ( 'NONE',  #88 ) ;
#589 = LINE ( 'NONE', #342, #479 ) ;
#590 = DATE_AND_TIME ( #483, #619 ) ;
#591 = LINE ( 'NONE', #200, #336 ) ;
#592 = APPROVAL_ROLE ( '' ) ;
#593 = ORIENTED_EDGE ( 'NONE', *, *, #495, .F. ) ;
#594 = EDGE_CURVE ( 'NONE', #402, #489, #348, .T. ) ;
#595 = LINE ( 'NONE', #632, #502 ) ;
#596 = ORIENTED_EDGE ( 'NONE', *, *, #150, .F. ) ;
#597 = LINE ( 'NONE', #545, #192 ) ;
#598 = ORIENTED_EDGE ( 'NONE', *, *, #318, .F. ) ;
#599 = DIRECTION ( 'NONE',  ( -1.000000000000000000, -0.000000000000000000, -0.000000000000000000 ) ) ;
#600 = CARTESIAN_POINT ( 'NONE',  ( -21.21320343559642652, 3.000000000000000000, -1.734723475976807094E-15 ) ) ;
#601 = VERTEX_POINT ( 'NONE', #51 ) ;
#602 = AXIS2_PLACEMENT_3D ( 'NONE', #120, #312, #224 ) ;
#603 = DIRECTION ( 'NONE',  ( 0.000000000000000000, -1.000000000000000000, 0.000000000000000000 ) ) ;
#604 = APPROVAL_DATE_TIME ( #417, #3 ) ;
#605 = CARTESIAN_POINT ( 'NONE',  ( 1.734723475976807094E-15, 0.000000000000000000, -21.21320343559643362 ) ) ;
#606 = CARTESIAN_POINT ( 'NONE',  ( -15.00000000000000000, 0.000000000000000000, -6.213203435596430957 ) ) ;
#607 = LINE ( 'NONE', #122, #23 ) ;
#608 = AXIS2_PLACEMENT_3D ( 'NONE', #123, #411, #559 ) ;
#609 = DIRECTION ( 'NONE',  ( 0.7071067811865474617, 0.000000000000000000, 0.7071067811865474617 ) ) ;
#610 = VERTEX_POINT ( 'NONE', #283 ) ;
#611 = VECTOR ( 'NONE', #628, 1000.000000000000114 ) ;
#612 = LINE ( 'NONE', #226, #308 ) ;
#613 = CARTESIAN_POINT ( 'NONE',  ( -15.00000000000000000, 3.000000000000000000, -15.00000000000000000 ) ) ;
#614 = ORIENTED_EDGE ( 'NONE', *, *, #368, .F. ) ;
#615 = CARTESIAN_POINT ( 'NONE',  ( -15.00000000000000000, 3.000000000000000000, 15.00000000000000000 ) ) ;
#616 = EDGE_LOOP ( 'NONE', ( #220, #633, #406, #184, #149, #323, #539, #358, #237, #476, #92, #386, #60, #6, #378, #249 ) ) ;
#617 = FACE_OUTER_BOUND ( 'NONE', #38, .T. ) ;
#618 = AXIS2_PLACEMENT_3D ( 'NONE', #373, #515, #267 ) ;
#619 = LOCAL_TIME ( 17, 47, 47.00000000000000000, #147 ) ;
#620 = EDGE_LOOP ( 'NONE', ( #25, #596, #141, #2 ) ) ;
#621 = CARTESIAN_POINT ( 'NONE',  ( -21.21320343559642652, 0.000000000000000000, -1.734723475976807094E-15 ) ) ;
#622 = ORIENTED_EDGE ( 'NONE', *, *, #11, .F. ) ;
#623 = UNCERTAINTY_MEASURE_WITH_UNIT (LENGTH_MEASURE( 1.000000000000000082E-05 ), #438, 'distance_accuracy_value', 'NONE');
#624 = CARTESIAN_POINT ( 'NONE',  ( -6.213203435596425628, 0.000000000000000000, 15.00000000000000000 ) ) ;
#625 = PLANE ( 'NONE',  #87 ) ;
#626 = CARTESIAN_POINT ( 'NONE',  ( -15.00000000000000000, 3.000000000000000000, 15.00000000000000000 ) ) ;
#627 = VECTOR ( 'NONE', #541, 1000.000000000000000 ) ;
#628 = DIRECTION ( 'NONE',  ( 0.7071067811865474617, 0.000000000000000000, 0.7071067811865474617 ) ) ;
#629 = DIRECTION ( 'NONE',  ( -0.000000000000000000, -0.000000000000000000, -1.000000000000000000 ) ) ;
#630 = CARTESIAN_POINT ( 'NONE',  ( -15.00000000000000000, 3.000000000000000000, -15.00000000000000000 ) ) ;
#631 = ADVANCED_FACE ( 'NONE', ( #445 ), #188, .F. ) ;
#632 = CARTESIAN_POINT ( 'NONE',  ( 1.734723475976807094E-15, 3.000000000000000000, 21.21320343559642652 ) ) ;
#633 = ORIENTED_EDGE ( 'NONE', *, *, #154, .T. ) ;
ENDSEC;
END-ISO-10303-21;
